<?xml version="1.0" encoding="UTF-8"?>
<!DOCTYPE svg PUBLIC "-//W3C//DTD SVG 1.1//EN" "http://www.w3.org/Graphics/SVG/1.1/DTD/svg11.dtd">
<!-- Creator: CorelDRAW X8 -->
<svg xmlns="http://www.w3.org/2000/svg" xml:space="preserve" width="1cm" height="1cm" version="1.1" style="shape-rendering:geometricPrecision; text-rendering:geometricPrecision; image-rendering:optimizeQuality; fill-rule:evenodd; clip-rule:evenodd"
viewBox="0 0 1000 1000"
 xmlns:xlink="http://www.w3.org/1999/xlink"
 data-name="Layer 1">
 <defs>
  <style type="text/css">
   <![CDATA[
    .fil0 {fill:#FEFEFE}
   ]]>
  </style>
 </defs>
 <g id="Layer_x0020_1">
  <metadata id="CorelCorpID_0Corel-Layer"/>
  <path class="fil0" d="M682 49l-364 0c0,0 0,0 0,0 -49,0 -93,26 -118,68l-182 315c-12,21 -18,44 -18,68 0,24 6,47 18,68l182 315c25,42 69,68 118,68 0,0 0,0 0,0l364 0c0,0 0,0 0,0 49,0 93,-26 118,-68l182 -315c12,-21 18,-44 18,-68 0,-24 -6,-47 -18,-68l-182 -315c-24,-42 -69,-68 -118,-68l0 0zm-262 678c123,0 193,-69 193,-194l0 -285 -101 0 0 289c0,66 -33,103 -92,103 -59,0 -93,-37 -93,-103l0 -289 -101 0 0 285c0,125 70,194 194,194zm238 -9l101 0 0 -470 -101 0 0 470z"/>
 </g>
</svg>
